<svg xmlns="http://www.w3.org/2000/svg" width="128" height="128" viewBox="0 0 128 128">
  <path id="user-md" d="M66.134,64c-21.178,0-38.4,14.352-38.4,32s17.229,32,38.4,32,38.4-14.352,38.4-32S87.312,64,66.134,64ZM78.8,31.019V53.333H46.666V30.523c3.808-1.845,6.4-5.248,6.4-9.189,0-5.893-5.728-10.667-12.8-10.667s-12.8,4.773-12.8,10.667c0,3.936,2.592,7.339,6.4,9.189v22.8C16.285,53.259,2,41.333,2,26.667V0H66V16C66,22.944,71.37,28.811,78.8,31.019ZM98,53.333H91.6V31.019c7.43-2.208,12.8-8.075,12.8-15.019V0H130V26.667C130,41.371,115.645,53.333,98,53.333Zm-12.8-32c-3.533,0-6.4-2.389-6.4-5.333V0H91.6V16C91.6,18.944,88.733,21.333,85.2,21.333Z" transform="translate(130 128) rotate(180)" fill="#f06255"/>
</svg>
