<svg xmlns="http://www.w3.org/2000/svg" width="56" height="56" viewBox="0 0 56 56">
  <path id="logoipsum-298" d="M18.858.516a11.7,11.7,0,0,0-8.272,3.426L0,14.528v4.845a11.667,11.667,0,0,0,3.814,8.642A11.667,11.667,0,0,0,0,36.659V41.5L10.586,52.09A11.7,11.7,0,0,0,27.5,51.7a11.7,11.7,0,0,0,16.914.388L55,41.5V36.659a11.667,11.667,0,0,0-3.814-8.642A11.667,11.667,0,0,0,55,19.374V14.528L44.414,3.942A11.7,11.7,0,0,0,27.5,4.33,11.667,11.667,0,0,0,18.858.516Zm16.561,27.5q-.2-.18-.388-.371l-7.53-7.53-7.53,7.53q-.19.19-.388.371.2.18.388.371l7.53,7.53,7.53-7.53Q35.22,28.2,35.418,28.016ZM30.556,41.5v2.314a5.587,5.587,0,0,0,9.537,3.951l8.8-8.8V36.659a5.587,5.587,0,0,0-9.537-3.951Zm-6.111,0-8.8-8.8a5.587,5.587,0,0,0-9.537,3.951v2.314l8.8,8.8a5.587,5.587,0,0,0,9.537-3.951Zm0-29.29v2.314l-8.8,8.8a5.587,5.587,0,0,1-9.537-3.951V17.06l8.8-8.8a5.587,5.587,0,0,1,9.537,3.951Zm14.907,11.11-8.8-8.8V12.214a5.587,5.587,0,0,1,9.537-3.951l8.8,8.8v2.314a5.587,5.587,0,0,1-9.537,3.951Z" transform="translate(0.5 -0.016)" fill="#003e65" stroke="#707070" stroke-width="1" fill-rule="evenodd"/>
</svg>
